<?xml version="1.0" standalone="no"?>
<!DOCTYPE svg PUBLIC "-//W3C//DTD SVG 20010904//EN"
 "http://www.w3.org/TR/2001/REC-SVG-20010904/DTD/svg10.dtd">
<svg version="1.0" xmlns="http://www.w3.org/2000/svg"
 width="3478.000000pt" height="1166.000000pt" viewBox="0 0 3478.000000 1166.000000"
 preserveAspectRatio="xMidYMid meet">

<g transform="translate(0.000000,1166.000000) scale(0.100000,-0.100000)"
fill="#000000" stroke="none">
<path d="M4177 7482 l-4177 -4177 0 -1653 0 -1652 943 0 942 0 665 665 665
665 1397 0 c1236 0 1398 -2 1398 -15 0 -13 137 -15 1170 -15 l1170 0 0 -650 0
-650 2135 0 2135 0 0 2032 0 2033 738 -738 737 -737 1090 0 1090 0 737 737
738 738 0 -2033 0 -2032 4393 0 4392 0 4123 4123 4122 4122 0 1708 0 1707
-2163 0 -2162 0 -1330 -1330 -1330 -1330 -822 0 -823 0 0 1330 0 1330 -4203 0
-4202 0 -1280 -1280 -1280 -1280 -1280 1280 -1280 1280 -2135 0 -2135 0 -4178
-4178z m15853 2135 c0 -1 -252 -254 -560 -562 l-560 -560 0 563 0 562 560 0
c308 0 560 -1 560 -3z m3190 -737 l595 -740 3 740 2 740 560 0 560 0 0 -1685
0 -1685 -502 2 -501 3 -626 778 -626 777 -3 -780 -2 -780 -555 0 -555 0 0
1685 0 1685 528 0 527 -1 595 -739z m-3190 -1510 l0 -1120 -560 0 -560 0 0
1120 0 1120 560 0 560 0 0 -1120z m-500 -1855 c381 -51 694 -159 955 -332 133
-89 299 -255 388 -389 133 -201 215 -432 248 -696 18 -152 7 -506 -20 -642
-72 -356 -237 -652 -486 -870 -275 -240 -655 -400 -1095 -461 -90 -12 -416
-33 -557 -35 l-23 0 0 504 0 504 198 5 c276 7 416 43 574 146 126 82 196 183
239 346 30 113 30 335 0 448 -61 230 -216 376 -481 451 -112 32 -236 46 -397
46 l-133 0 0 502 0 501 238 -6 c130 -4 289 -13 352 -22z m3978 14 c232 -25
429 -84 640 -190 505 -254 836 -708 923 -1264 19 -121 16 -399 -5 -529 -82
-500 -401 -954 -847 -1206 -301 -170 -578 -241 -939 -241 -406 0 -733 96
-1056 310 -893 593 -1002 1878 -222 2626 135 130 261 219 431 305 206 103 428
169 657 193 79 8 327 6 418 -4z m2782 -2879 l0 -560 -562 0 -563 0 560 560
c308 308 561 560 562 560 2 0 3 -252 3 -560z"/>
<path d="M23155 4556 c-210 -41 -387 -177 -480 -371 -63 -131 -79 -205 -79
-360 0 -155 16 -230 79 -360 52 -107 115 -188 193 -250 204 -163 484 -191 722
-73 120 59 239 178 298 298 63 128 84 220 84 370 0 153 -21 242 -89 380 -85
173 -250 310 -428 355 -86 22 -218 27 -300 11z"/>
</g>
</svg>
